<?xml version="1.0" standalone="no"?>
<!DOCTYPE svg PUBLIC "-//W3C//DTD SVG 20010904//EN"
 "http://www.w3.org/TR/2001/REC-SVG-20010904/DTD/svg10.dtd">
<svg version="1.0" xmlns="http://www.w3.org/2000/svg"
 width="1024.000000pt" height="1024.000000pt" viewBox="0 0 1024.000000 1024.000000"
 preserveAspectRatio="xMidYMid meet">

<g transform="translate(0.000000,1024.000000) scale(0.100000,-0.100000)"
fill="#000000" stroke="none">
<path d="M4965 7835 c-66 -24 -196 -70 -290 -103 -93 -33 -235 -84 -315 -112
-348 -124 -540 -190 -918 -319 -221 -75 -407 -142 -414 -149 -18 -18 7 -61 42
-74 l30 -10 0 -234 0 -234 -39 -19 c-76 -39 -123 -119 -124 -211 0 -99 68
-192 164 -223 63 -21 82 -21 146 -2 57 17 117 76 155 149 45 88 1 220 -93 279
l-49 30 0 209 0 208 28 -6 c15 -4 95 -28 177 -54 83 -27 210 -67 283 -89 l132
-42 0 -96 0 -96 -113 -116 c-274 -281 -446 -599 -531 -981 -46 -205 -47 -535
-2 -740 71 -330 225 -629 458 -890 164 -184 333 -312 564 -428 585 -292 1166
-295 1759 -8 360 175 653 464 862 851 27 50 55 106 62 125 8 19 27 65 43 102
38 89 84 277 98 397 14 113 5 162 -37 212 -50 59 -51 59 -531 59 -434 0 -438
0 -482 -22 -69 -36 -97 -79 -126 -198 -14 -57 -41 -133 -59 -169 -96 -190
-283 -343 -490 -403 -103 -29 -304 -32 -405 -5 -155 41 -322 148 -420 270
-108 133 -159 268 -167 438 -14 286 101 519 328 665 149 97 279 136 444 136
183 0 323 -48 498 -170 137 -94 203 -101 345 -37 80 37 165 106 424 348 162
151 194 202 185 291 -9 87 -56 161 -147 230 l-51 39 3 99 3 100 50 18 c28 10
205 66 395 125 416 129 410 127 410 158 0 30 6 28 -340 142 -146 48 -328 110
-405 137 -77 27 -189 67 -250 88 -483 170 -667 235 -780 275 -348 125 -334
124 -510 60z m277 -516 c68 -27 243 -90 378 -136 109 -37 135 -52 146 -85 7
-23 -21 -58 -45 -58 -9 0 -107 33 -218 74 -111 41 -237 86 -280 101 -104 35
-127 58 -107 109 9 23 62 20 126 -5z"/>
<path d="M2861 2899 c-175 -51 -263 -267 -174 -431 36 -66 111 -132 175 -154
87 -28 248 -3 265 43 10 24 -7 62 -37 83 -26 18 -36 20 -81 12 -74 -14 -117
-1 -161 48 -68 77 -57 182 27 239 30 20 43 23 102 18 58 -4 73 -1 101 17 48
31 53 63 13 97 -18 15 -46 30 -63 33 -43 9 -127 6 -167 -5z"/>
<path d="M3411 2899 c-74 -22 -150 -89 -193 -172 -16 -32 -21 -60 -21 -117 0
-91 22 -147 85 -216 145 -158 400 -111 494 91 29 62 32 158 7 230 -24 68 -111
156 -177 178 -54 18 -141 21 -195 6z m166 -165 c37 -28 73 -91 73 -128 0 -83
-78 -159 -162 -158 -102 2 -171 135 -119 232 42 79 141 105 208 54z"/>
<path d="M3913 2899 c-47 -17 -53 -42 -53 -219 0 -209 10 -249 79 -313 35 -33
65 -51 106 -63 53 -15 63 -15 122 0 86 21 137 58 165 121 20 44 23 70 26 223
2 95 1 183 -2 197 -9 37 -34 55 -76 55 -30 0 -43 -6 -59 -26 -19 -25 -21 -40
-21 -204 l0 -178 -31 -26 c-33 -28 -83 -34 -110 -13 -41 31 -49 69 -49 245 0
148 -2 171 -17 184 -24 20 -54 27 -80 17z"/>
<path d="M4999 2896 c-57 -20 -96 -53 -118 -99 -27 -56 -27 -102 2 -157 25
-51 69 -84 140 -105 77 -23 106 -57 72 -85 -22 -18 -77 -14 -116 9 -44 27 -74
27 -93 -1 -51 -73 40 -158 169 -158 171 0 272 156 179 277 -28 36 -81 67 -154
89 -61 18 -77 36 -62 69 9 20 19 25 50 25 22 0 53 -7 71 -16 39 -20 55 -14 81
28 27 45 25 62 -10 92 -53 44 -140 58 -211 32z"/>
<path d="M6150 2902 c-41 -1 -84 -4 -96 -7 -39 -9 -44 -43 -44 -301 l0 -245
25 -24 c30 -30 64 -32 99 -4 24 19 26 26 26 95 l0 74 53 0 c160 1 257 77 257
202 0 76 -17 116 -70 161 -53 45 -102 54 -250 49z m147 -164 c26 -25 30 -69 8
-88 -8 -7 -41 -13 -73 -14 l-57 -1 -3 63 -3 62 52 0 c40 0 58 -5 76 -22z"/>
<path d="M7163 2892 c-95 -34 -169 -112 -194 -207 -18 -65 -6 -164 27 -225
101 -186 333 -216 484 -61 43 43 60 70 74 115 45 142 -21 298 -156 367 -60 31
-166 36 -235 11z m173 -153 c53 -32 77 -80 72 -143 -7 -87 -71 -146 -160 -146
-33 0 -47 6 -78 38 -78 77 -72 181 13 243 49 35 104 39 153 8z"/>
<path d="M4410 2880 c-19 -19 -20 -33 -20 -267 0 -179 4 -255 13 -273 23 -46
104 -53 127 -10 6 11 14 55 18 98 l7 77 72 -91 c82 -103 106 -119 157 -110 67
13 71 70 11 137 -18 21 -41 49 -50 63 -16 25 -16 26 18 56 108 94 83 257 -50
324 -24 12 -62 16 -158 16 -112 0 -127 -2 -145 -20z m250 -145 c23 -21 26 -67
6 -84 -8 -6 -37 -14 -65 -18 l-51 -6 0 68 0 68 45 -6 c25 -2 55 -13 65 -22z"/>
<path d="M5341 2876 c-22 -23 -23 -29 -23 -265 0 -318 -4 -312 195 -310 62 1
123 4 136 8 34 9 65 53 56 80 -14 44 -31 51 -135 51 -96 0 -98 0 -102 25 -3
14 -3 36 0 50 4 24 6 25 93 25 78 0 91 3 115 23 23 20 26 28 20 60 -4 21 -15
41 -26 47 -10 5 -59 10 -109 10 -49 0 -92 4 -95 9 -3 5 -3 23 0 40 l7 31 94 0
c86 0 96 2 118 25 31 30 32 65 2 93 -22 21 -33 22 -173 22 -146 0 -151 -1
-173 -24z"/>
<path d="M6517 2885 c-15 -14 -17 -48 -17 -280 0 -261 0 -264 23 -285 17 -17
30 -21 60 -17 55 7 66 28 67 120 0 42 4 77 9 77 10 0 23 -15 114 -130 24 -30
55 -59 69 -64 57 -20 118 26 99 76 -5 13 -32 51 -60 84 l-51 59 36 30 c54 47
74 83 74 140 0 68 -33 131 -88 170 -43 29 -47 30 -181 33 -118 3 -140 1 -154
-13z m252 -151 c42 -53 12 -97 -67 -98 l-47 -1 -3 63 -3 62 50 0 c42 0 53 -4
70 -26z"/>
</g>
</svg>
